<svg width="64" height="64" viewBox="0 0 64 64" fill="none" xmlns="http://www.w3.org/2000/svg">
<path fill-rule="evenodd" clip-rule="evenodd" d="M31.9999 10.6666C28.2686 10.6659 24.6024 11.6439 21.3672 13.5029C18.132 15.362 15.4409 18.037 13.5627 21.2611C11.6844 24.4852 10.6846 28.1456 10.6631 31.8768C10.6415 35.6081 11.599 39.2797 13.4399 42.5253C14.6842 40.9081 16.2838 39.5988 18.1148 38.6985C19.9459 37.7982 21.9595 37.3311 23.9999 37.3333H39.9999C42.0404 37.3311 44.054 37.7982 45.8851 38.6985C47.7161 39.5988 49.3157 40.9081 50.5599 42.5253C52.4009 39.2797 53.3584 35.6081 53.3368 31.8768C53.3153 28.1456 52.3155 24.4852 50.4372 21.2611C48.559 18.037 45.8679 15.362 42.6327 13.5029C39.3975 11.6439 35.7313 10.6659 31.9999 10.6666ZM53.1813 48.2026C56.7467 43.5545 58.6752 37.858 58.6666 31.9999C58.6666 17.2719 46.7279 5.33325 31.9999 5.33325C17.2719 5.33325 5.33328 17.2719 5.33328 31.9999C5.32448 37.858 7.25303 43.5546 10.8186 48.2026L10.8053 48.2506L11.7519 49.3519C14.253 52.2759 17.3583 54.6229 20.8539 56.231C24.3495 57.839 28.1522 58.67 31.9999 58.6666C37.4062 58.6765 42.6863 57.0343 47.1333 53.9599C49.0291 52.6501 50.7481 51.1013 52.2479 49.3519L53.1946 48.2506L53.1813 48.2026ZM31.9999 15.9999C29.8782 15.9999 27.8434 16.8428 26.3431 18.3431C24.8428 19.8434 23.9999 21.8782 23.9999 23.9999C23.9999 26.1217 24.8428 28.1565 26.3431 29.6568C27.8434 31.1571 29.8782 31.9999 31.9999 31.9999C34.1217 31.9999 36.1565 31.1571 37.6568 29.6568C39.1571 28.1565 39.9999 26.1217 39.9999 23.9999C39.9999 21.8782 39.1571 19.8434 37.6568 18.3431C36.1565 16.8428 34.1217 15.9999 31.9999 15.9999Z" fill="#002979"/>
</svg>
