<svg width="52" height="52" viewBox="0 0 52 52" fill="none" xmlns="http://www.w3.org/2000/svg">
<path fill-rule="evenodd" clip-rule="evenodd" d="M26.0001 45.5C29.5228 45.5003 32.9798 44.5463 36.0039 42.7394C39.0279 40.9325 41.5059 38.3402 43.1748 35.2378C44.8436 32.1355 45.6409 28.639 45.4819 25.1199C45.3229 21.6007 44.2136 18.1904 42.2718 15.2512L26.7693 32.4762C26.0451 33.2809 25.046 33.7854 23.9686 33.8905C22.8911 33.9956 21.8134 33.6935 20.9474 33.0438L13.8668 27.7333C13.4071 27.3886 13.1031 26.8753 13.0219 26.3064C12.9406 25.7376 13.0886 25.1597 13.4334 24.7C13.7782 24.2403 14.2915 23.9364 14.8603 23.8551C15.4292 23.7738 16.007 23.9219 16.4668 24.2667L23.5474 29.5772L39.4638 11.895C37.158 9.6939 34.3478 8.09164 31.2792 7.22848C28.2106 6.36533 24.9772 6.26761 21.862 6.94389C18.7469 7.62017 15.8451 9.04982 13.4106 11.1077C10.9761 13.1655 9.08328 15.7888 7.89776 18.7478C6.71224 21.7069 6.27021 24.9114 6.61037 28.0809C6.95054 31.2504 8.06253 34.2882 9.84898 36.9282C11.6354 39.5683 14.0419 41.7301 16.8576 43.2245C19.6733 44.7189 22.8124 45.5002 26.0001 45.5Z" fill="#002979"/>
</svg>
