<svg width="90" height="76" viewBox="0 0 90 76" fill="none" xmlns="http://www.w3.org/2000/svg">
<path d="M84 0H6C4.4087 0 2.88258 0.632141 1.75736 1.75736C0.632141 2.88258 0 4.4087 0 6V60C0 61.5913 0.632141 63.1174 1.75736 64.2426C2.88258 65.3679 4.4087 66 6 66H37.05L36.37 67.69C35.8639 68.965 34.9855 70.0581 33.8493 70.8268C32.7131 71.5956 31.3718 72.0044 30 72H26C25.4696 72 24.9609 72.2107 24.5858 72.5858C24.2107 72.9609 24 73.4696 24 74C24 74.5304 24.2107 75.0391 24.5858 75.4142C24.9609 75.7893 25.4696 76 26 76H64C64.5304 76 65.0391 75.7893 65.4142 75.4142C65.7893 75.0391 66 74.5304 66 74C66 73.4696 65.7893 72.9609 65.4142 72.5858C65.0391 72.2107 64.5304 72 64 72H60C58.6282 72.0044 57.2869 71.5956 56.1507 70.8268C55.0145 70.0581 54.1361 68.965 53.63 67.69L53 66H84C85.5913 66 87.1174 65.3679 88.2426 64.2426C89.3679 63.1174 90 61.5913 90 60V6C90 4.4087 89.3679 2.88258 88.2426 1.75736C87.1174 0.632141 85.5913 0 84 0ZM4 6C4 5.46957 4.21071 4.96086 4.58579 4.58579C4.96086 4.21071 5.46957 4 6 4H84C84.5304 4 85.0391 4.21071 85.4142 4.58579C85.7893 4.96086 86 5.46957 86 6V52H4V6ZM49.91 69.17C50.32 70.1904 50.8794 71.1442 51.57 72H38.43C39.1206 71.1442 39.68 70.1904 40.09 69.17L41.35 66H48.65L49.91 69.17ZM86 60C86 60.5304 85.7893 61.0391 85.4142 61.4142C85.0391 61.7893 84.5304 62 84 62H6C5.46957 62 4.96086 61.7893 4.58579 61.4142C4.21071 61.0391 4 60.5304 4 60V56H86V60Z" fill="black"/>
<path d="M29.1 39.59C28.7559 39.971 28.5716 40.4698 28.5851 40.983C28.5987 41.4963 28.8091 41.9846 29.1727 42.347C29.5364 42.7094 30.0255 42.9181 30.5388 42.9298C31.0521 42.9415 31.5502 42.7554 31.93 42.41C35.4011 38.9525 40.1007 37.0112 45 37.0112C49.8993 37.0112 54.5989 38.9525 58.07 42.41C58.4498 42.7554 58.948 42.9415 59.4612 42.9298C59.9745 42.9181 60.4636 42.7094 60.8273 42.347C61.191 41.9846 61.4014 41.4963 61.4149 40.983C61.4284 40.4698 61.2441 39.971 60.9 39.59C56.68 35.3789 50.9617 33.0139 45 33.0139C39.0383 33.0139 33.3201 35.3789 29.1 39.59Z" fill="black"/>
<path d="M65.41 13.59C65.0353 13.2175 64.5284 13.0084 64 13.0084C63.4716 13.0084 62.9647 13.2175 62.59 13.59L60 16.17L57.41 13.59C57.0274 13.2624 56.5352 13.0911 56.0319 13.1106C55.5285 13.13 55.0511 13.3387 54.6949 13.6949C54.3387 14.0511 54.13 14.5285 54.1106 15.0319C54.0911 15.5353 54.2623 16.0274 54.59 16.41L57.17 19L54.59 21.59C54.3806 21.7693 54.2106 21.9899 54.0905 22.2381C53.9705 22.4862 53.903 22.7565 53.8924 23.0319C53.8818 23.3073 53.9282 23.582 54.0287 23.8387C54.1293 24.0953 54.2818 24.3284 54.4767 24.5233C54.6716 24.7182 54.9047 24.8707 55.1613 24.9713C55.418 25.0718 55.6927 25.1182 55.9681 25.1076C56.2435 25.097 56.5138 25.0295 56.7619 24.9095C57.0101 24.7894 57.2307 24.6194 57.41 24.41L60 21.83L62.59 24.41C62.9726 24.7377 63.4647 24.9089 63.9681 24.8894C64.4714 24.87 64.9489 24.6613 65.3051 24.3051C65.6613 23.9489 65.87 23.4715 65.8894 22.9681C65.9088 22.4648 65.7376 21.9726 65.41 21.59L62.83 19L65.41 16.41C65.7825 16.0353 65.9916 15.5284 65.9916 15C65.9916 14.4716 65.7825 13.9647 65.41 13.59Z" fill="black"/>
<path d="M32.59 24.41C32.9726 24.7376 33.4647 24.9089 33.9681 24.8894C34.4714 24.87 34.9489 24.6613 35.3051 24.3051C35.6613 23.9489 35.87 23.4714 35.8894 22.9681C35.9089 22.4647 35.7376 21.9726 35.41 21.59L32.83 19L35.41 16.41C35.7376 16.0274 35.9089 15.5352 35.8894 15.0319C35.87 14.5285 35.6613 14.051 35.3051 13.6949C34.9489 13.3387 34.4714 13.13 33.9681 13.1106C33.4647 13.0911 32.9726 13.2623 32.59 13.59L30 16.17L27.41 13.59C27.0274 13.2623 26.5352 13.0911 26.0319 13.1106C25.5285 13.13 25.0511 13.3387 24.6949 13.6949C24.3387 14.051 24.13 14.5285 24.1106 15.0319C24.0911 15.5352 24.2623 16.0274 24.59 16.41L27.17 19L24.59 21.59C24.3806 21.7693 24.2106 21.9899 24.0905 22.238C23.9705 22.4862 23.903 22.7564 23.8924 23.0319C23.8818 23.3073 23.9282 23.582 24.0287 23.8386C24.1293 24.0953 24.2818 24.3284 24.4767 24.5233C24.6716 24.7182 24.9047 24.8707 25.1613 24.9713C25.418 25.0718 25.6927 25.1182 25.9681 25.1076C26.2435 25.0969 26.5138 25.0295 26.7619 24.9094C27.0101 24.7894 27.2307 24.6193 27.41 24.41L30 21.83L32.59 24.41Z" fill="black"/>
</svg>
