<svg width="32" height="32" viewBox="0 0 32 32" fill="none" xmlns="http://www.w3.org/2000/svg">
<path d="M12 14C13.1046 14 14 13.1046 14 12C14 10.8954 13.1046 10 12 10C10.8954 10 10 10.8954 10 12C10 13.1046 10.8954 14 12 14Z" fill="#002979"/>
<path d="M20 14C21.1046 14 22 13.1046 22 12C22 10.8954 21.1046 10 20 10C18.8954 10 18 10.8954 18 12C18 13.1046 18.8954 14 20 14Z" fill="#002979"/>
<path d="M16 30C8.28 30 2 23.72 2 16C2 8.28 8.28 2 16 2C23.72 2 30 8.28 30 16C30 23.72 23.72 30 16 30ZM16 4C9.38 4 4 9.38 4 16C4 22.62 9.38 28 16 28C22.62 28 28 22.62 28 16C28 9.38 22.62 4 16 4Z" fill="#002979"/>
<path d="M21.66 23C21.24 23 20.86 22.74 20.72 22.34C20.376 21.3629 19.7372 20.5166 18.8917 19.918C18.0463 19.3193 17.0359 18.9978 16 18.9978C14.9641 18.9978 13.9537 19.3193 13.1083 19.918C12.2628 20.5166 11.624 21.3629 11.28 22.34C11.1 22.86 10.52 23.14 9.99999 22.94C9.87545 22.8969 9.76081 22.8293 9.66286 22.7411C9.5649 22.6529 9.48561 22.546 9.42967 22.4267C9.37374 22.3074 9.34229 22.1781 9.33719 22.0464C9.3321 21.9147 9.35345 21.7833 9.39999 21.66C10.38 18.86 13.04 17 16 17C18.96 17 21.62 18.88 22.6 21.66C22.6541 21.811 22.6712 21.9727 22.6498 22.1317C22.6284 22.2906 22.5691 22.4421 22.477 22.5734C22.3849 22.7047 22.2626 22.812 22.1205 22.8862C21.9783 22.9605 21.8204 22.9995 21.66 23Z" fill="#002979"/>
</svg>
