<svg width="32" height="32" viewBox="0 0 32 32" fill="none" xmlns="http://www.w3.org/2000/svg">
<path fill-rule="evenodd" clip-rule="evenodd" d="M13.5174 2.42014C14.1146 2.24099 14.7455 2.20393 15.3595 2.31192C15.9736 2.41991 16.554 2.66996 17.0542 3.04212C17.5545 3.41427 17.9608 3.89822 18.2408 4.45533C18.5208 5.01245 18.6666 5.6273 18.6667 6.25081V25.7495C18.6666 26.373 18.5208 26.9878 18.2408 27.5449C17.9608 28.1021 17.5545 28.586 17.0542 28.9582C16.554 29.3303 15.9736 29.5804 15.3595 29.6884C14.7455 29.7964 14.1146 29.7593 13.5174 29.5801L5.51741 27.1801C4.69355 26.933 3.97129 26.4269 3.45779 25.7368C2.94429 25.0468 2.66689 24.2096 2.66675 23.3495V8.65081C2.66689 7.79067 2.94429 6.95349 3.45779 6.26346C3.97129 5.57342 4.69355 5.06729 5.51741 4.82014L13.5174 2.42014ZM20.0001 5.33348C20.0001 4.97985 20.1406 4.64072 20.3906 4.39067C20.6407 4.14062 20.9798 4.00014 21.3334 4.00014H25.3334C26.3943 4.00014 27.4117 4.42157 28.1618 5.17172C28.912 5.92186 29.3334 6.93928 29.3334 8.00014V9.33348C29.3334 9.6871 29.1929 10.0262 28.9429 10.2763C28.6928 10.5263 28.3537 10.6668 28.0001 10.6668C27.6465 10.6668 27.3073 10.5263 27.0573 10.2763C26.8072 10.0262 26.6667 9.6871 26.6667 9.33348V8.00014C26.6667 7.64652 26.5263 7.30738 26.2762 7.05733C26.0262 6.80728 25.687 6.66681 25.3334 6.66681H21.3334C20.9798 6.66681 20.6407 6.52633 20.3906 6.27628C20.1406 6.02624 20.0001 5.6871 20.0001 5.33348ZM28.0001 21.3335C28.3537 21.3335 28.6928 21.4739 28.9429 21.724C29.1929 21.974 29.3334 22.3132 29.3334 22.6668V24.0001C29.3334 25.061 28.912 26.0784 28.1618 26.8286C27.4117 27.5787 26.3943 28.0001 25.3334 28.0001H21.3334C20.9798 28.0001 20.6407 27.8597 20.3906 27.6096C20.1406 27.3596 20.0001 27.0204 20.0001 26.6668C20.0001 26.3132 20.1406 25.974 20.3906 25.724C20.6407 25.4739 20.9798 25.3335 21.3334 25.3335H25.3334C25.687 25.3335 26.0262 25.193 26.2762 24.943C26.5263 24.6929 26.6667 24.3538 26.6667 24.0001V22.6668C26.6667 22.3132 26.8072 21.974 27.0573 21.724C27.3073 21.4739 27.6465 21.3335 28.0001 21.3335ZM12.0001 14.6668C11.6465 14.6668 11.3073 14.8073 11.0573 15.0573C10.8072 15.3074 10.6667 15.6465 10.6667 16.0001C10.6667 16.3538 10.8072 16.6929 11.0573 16.943C11.3073 17.193 11.6465 17.3335 12.0001 17.3335H12.0014C12.355 17.3335 12.6942 17.193 12.9442 16.943C13.1943 16.6929 13.3347 16.3538 13.3347 16.0001C13.3347 15.6465 13.1943 15.3074 12.9442 15.0573C12.6942 14.8073 12.355 14.6668 12.0014 14.6668H12.0001Z" fill="#CCCCCC" />
<path d="M21.3335 16.0002H28.0002M28.0002 16.0002L25.3335 13.3335M28.0002 16.0002L25.3335 18.6668" stroke="#CCCCCC" stroke-width="2" stroke-linecap="round" stroke-linejoin="round"/>
</svg>
