<svg width="48" height="48" viewBox="0 0 48 48" fill="none" xmlns="http://www.w3.org/2000/svg">
<g clip-path="url(#clip0_156_705)">
<path d="M43.5761 36.075C43.5011 36 43.3511 36 43.2761 36.075C42.6761 36.375 41.9261 36.675 41.2511 36.9C39.0011 37.725 36.8261 38.175 34.5011 38.175C30.0761 38.175 25.9511 36.675 22.6511 34.05C19.3511 31.275 17.5511 27.675 17.5511 23.925C17.5511 23.1 17.7761 22.125 18.0761 21.375C12.4511 26.25 11.4011 34.725 15.9761 40.8C17.0261 42.375 18.3761 43.65 20.0261 44.625C22.9511 46.425 26.4011 47.025 29.7761 46.425C30.3011 46.35 30.8261 46.2 31.2761 45.975L31.5011 45.9C36.4511 44.175 40.8011 40.725 43.5761 36.3C43.8011 36.225 43.8011 36.075 43.5761 36.075Z" fill="#4778EC"/>
<path d="M19.725 45.4499C19.65 45.3749 19.5 45.3749 19.425 45.2249C17.85 44.1749 16.5 42.8999 15.375 41.3249C12.975 38.0249 12 33.8999 12.6 29.7749C13.2 25.6499 15.45 22.1999 18.75 19.7249C18.75 19.7249 18.825 19.6499 18.975 19.6499C19.275 19.4249 19.725 19.1249 20.175 18.8999C20.475 18.6749 20.775 18.5999 21.15 18.3749H21.225C21.825 18.0749 22.95 17.6249 24.15 17.6249C25.875 17.6249 27.45 18.3749 28.575 19.4249C28.5 19.1999 28.35 19.1249 28.275 18.8999C27.3 17.3249 25.95 15.2999 22.8 13.6499C19.5 11.9249 15.9 11.8499 15.225 11.8499C8.025 11.8499 2.025 16.2749 0.975 22.1249C0.75 22.6499 0.75 23.1749 0.75 23.6999C0.75 27.2249 1.5 30.6749 3 33.8249C6.6 41.5499 14.1 46.4249 22.125 47.1749C22.725 47.2499 23.4 47.2499 24 47.2499H24.075C23.55 47.1749 23.1 47.0249 22.575 46.7999C21.6 46.4999 20.625 45.9749 19.725 45.4499Z" fill="#4778EC"/>
<path d="M45.3744 12.825L45.2994 12.6C41.4744 5.325 33.2994 0.75 23.9994 0.75C13.7994 0.75 5.02441 7.5 1.94941 16.725C1.87441 17.025 1.72441 17.475 1.64941 17.775C1.94941 17.25 2.39941 16.725 2.77441 16.2C3.52441 15.45 4.27441 14.7 5.09941 14.1C7.7244 12.225 11.2494 10.95 14.9994 10.95C16.0494 10.95 19.6494 11.025 23.0244 12.825C26.3994 14.625 27.9744 16.725 28.9494 18.45C29.3994 19.2 29.6994 20.025 29.9244 20.775C29.9994 21.3 30.1494 21.825 30.2244 22.35C30.2994 23.1 30.2994 23.7 30.2994 24.075C30.2994 24.15 30.2994 24.15 30.2994 24.3C30.2994 25.425 29.6994 27.075 28.7244 28.35C28.6494 28.425 28.6494 28.425 28.4994 28.575C28.2744 28.8 28.1994 28.875 28.1994 29.1C28.1994 29.4 28.4244 29.7 28.7994 30.075C31.1994 31.8 35.9994 31.65 36.2244 31.575C38.0994 31.575 39.8994 31.05 41.6244 30.075C44.9994 28.2 47.0244 24.6 47.0244 20.7C47.2494 16.725 45.9744 14.1 45.3744 12.825Z" fill="#4778EC"/>
</g>
<defs>
<clipPath id="clip0_156_705">
<rect width="48" height="48" fill="white"/>
</clipPath>
</defs>
</svg>
