<svg width="32" height="32" viewBox="0 0 32 32" fill="none"  xmlns="http://www.w3.org/2000/svg">
<path fill-rule="evenodd" clip-rule="evenodd" d="M16.0001 5.33317C14.1344 5.33283 12.3013 5.82182 10.6837 6.75134C9.06611 7.68086 7.72059 9.0184 6.78145 10.6304C5.84232 12.2425 5.34242 14.0727 5.33165 15.9383C5.32089 17.8039 5.79963 19.6397 6.7201 21.2625C7.34224 20.4539 8.142 19.7993 9.05754 19.3491C9.97308 18.899 10.9799 18.6654 12.0001 18.6665H20.0001C21.0203 18.6654 22.0271 18.899 22.9426 19.3491C23.8582 19.7993 24.6579 20.4539 25.2801 21.2625C26.2006 19.6397 26.6793 17.8039 26.6685 15.9383C26.6578 14.0727 26.1579 12.2425 25.2187 10.6304C24.2796 9.0184 22.9341 7.68086 21.3165 6.75134C19.6989 5.82182 17.8658 5.33283 16.0001 5.33317ZM26.5908 24.1012C28.3735 21.7771 29.3377 18.9289 29.3334 15.9998C29.3334 8.63584 23.3641 2.6665 16.0001 2.6665C8.6361 2.6665 2.66676 8.63584 2.66676 15.9998C2.66236 18.9289 3.62664 21.7772 5.40943 24.1012L5.40276 24.1252L5.8761 24.6758C7.12661 26.1378 8.67928 27.3113 10.4271 28.1154C12.1749 28.9194 14.0762 29.3349 16.0001 29.3332C18.7032 29.3382 21.3433 28.517 23.5668 26.9798C24.5147 26.3249 25.3742 25.5505 26.1241 24.6758L26.5974 24.1252L26.5908 24.1012ZM16.0001 7.99984C14.9392 7.99984 13.9218 8.42126 13.1717 9.17141C12.4215 9.92156 12.0001 10.939 12.0001 11.9998C12.0001 13.0607 12.4215 14.0781 13.1717 14.8283C13.9218 15.5784 14.9392 15.9998 16.0001 15.9998C17.061 15.9998 18.0784 15.5784 18.8285 14.8283C19.5787 14.0781 20.0001 13.0607 20.0001 11.9998C20.0001 10.939 19.5787 9.92156 18.8285 9.17141C18.0784 8.42126 17.061 7.99984 16.0001 7.99984Z" fill="#CCCCCC" />
</svg>
