<svg width="18" height="18" viewBox="0 0 18 18" fill="none" xmlns="http://www.w3.org/2000/svg">
<path d="M3.22192 9.70809C3.61192 9.69009 3.94192 9.54009 4.21192 9.25809C4.48192 8.97609 4.61992 8.64009 4.61992 8.25009C4.61992 8.64009 4.75192 8.97609 5.02192 9.25809C5.29192 9.54009 5.62192 9.69009 6.01192 9.70809C5.62192 9.72609 5.29192 9.87609 5.02192 10.1581C4.89139 10.291 4.78861 10.4486 4.7196 10.6217C4.65058 10.7947 4.6167 10.9798 4.61992 11.1661C4.61992 10.7761 4.48792 10.4401 4.21192 10.1581C3.94192 9.87609 3.61192 9.72609 3.22192 9.70809ZM4.61992 5.38809C5.37592 5.35209 6.01792 5.05809 6.54592 4.50609C7.07392 3.95409 7.33792 3.30009 7.33792 2.53809C7.33792 3.30009 7.60192 3.95409 8.12992 4.50609C8.65792 5.05809 9.29992 5.34609 10.0619 5.38809C9.56392 5.41209 9.10792 5.55009 8.68792 5.81409C8.27392 6.07209 7.94392 6.42009 7.69792 6.85209C7.45792 7.28409 7.33792 7.74609 7.33792 8.25009C7.33792 7.48809 7.07392 6.82809 6.54592 6.27609C6.01792 5.71809 5.37592 5.42409 4.61992 5.38809ZM6.61192 11.8501C7.18192 11.8261 7.66792 11.6041 8.06392 11.1901C8.45992 10.7761 8.65792 10.2841 8.65792 9.70809C8.65792 10.2841 8.85592 10.7761 9.25192 11.1901C9.64792 11.6041 10.1279 11.8261 10.6979 11.8501C10.1279 11.8741 9.64792 12.0961 9.25192 12.5101C8.85592 12.9241 8.65792 13.4161 8.65792 13.9921C8.65792 13.4161 8.45992 12.9241 8.06392 12.5101C7.68544 12.1079 7.16384 11.8708 6.61192 11.8501ZM10.6979 9.00609C11.2679 8.98209 11.7479 8.76009 12.1439 8.34609C12.5399 7.93209 12.7319 7.44009 12.7319 6.85809C12.7319 7.43409 12.9299 7.92609 13.3259 8.34009C13.7219 8.75409 14.2079 8.97609 14.7779 9.00009C14.2079 9.02409 13.7219 9.24609 13.3259 9.66009C12.9299 10.0741 12.7319 10.5661 12.7319 11.1421C12.7319 10.5661 12.5339 10.0741 12.1439 9.66009C11.7479 9.25209 11.2679 9.03009 10.6979 9.00609Z" fill="white"/>
</svg>
