<svg width="32" height="32" viewBox="0 0 32 32" fill="none"  xmlns="http://www.w3.org/2000/svg">
<path d="M4 9C4 7.67392 4.52678 6.40215 5.46447 5.46447C6.40215 4.52678 7.67392 4 9 4H23C24.3261 4 25.5979 4.52678 26.5355 5.46447C27.4732 6.40215 28 7.67392 28 9V23C28 24.3261 27.4732 25.5979 26.5355 26.5355C25.5979 27.4732 24.3261 28 23 28H9C7.67392 28 6.40215 27.4732 5.46447 26.5355C4.52678 25.5979 4 24.3261 4 23V9ZM8.5 21C8.5 21.2652 8.60536 21.5196 8.79289 21.7071C8.98043 21.8946 9.23478 22 9.5 22H14C14.2652 22 14.5196 21.8946 14.7071 21.7071C14.8946 21.5196 15 21.2652 15 21C15 20.7348 14.8946 20.4804 14.7071 20.2929C14.5196 20.1054 14.2652 20 14 20H9.5C9.23478 20 8.98043 20.1054 8.79289 20.2929C8.60536 20.4804 8.5 20.7348 8.5 21ZM9.5 12C9.23478 12 8.98043 12.1054 8.79289 12.2929C8.60536 12.4804 8.5 12.7348 8.5 13C8.5 13.2652 8.60536 13.5196 8.79289 13.7071C8.98043 13.8946 9.23478 14 9.5 14H14C14.2652 14 14.5196 13.8946 14.7071 13.7071C14.8946 13.5196 15 13.2652 15 13C15 12.7348 14.8946 12.4804 14.7071 12.2929C14.5196 12.1054 14.2652 12 14 12H9.5ZM23.204 18.292C23.0165 18.1045 22.7622 17.9992 22.497 17.9992C22.2318 17.9992 21.9775 18.1045 21.79 18.292L19.496 20.586L18.708 19.796C18.5205 19.6082 18.2661 19.5026 18.0007 19.5024C17.7353 19.5023 17.4808 19.6075 17.293 19.795C17.1052 19.9825 16.9996 20.2369 16.9994 20.5023C16.9993 20.7677 17.1045 21.0222 17.292 21.21L18.788 22.708C18.8809 22.8011 18.9912 22.875 19.1127 22.9254C19.2342 22.9758 19.3645 23.0018 19.496 23.0018C19.6275 23.0018 19.7578 22.9758 19.8793 22.9254C20.0008 22.875 20.1111 22.8011 20.204 22.708L23.204 19.708C23.2971 19.6151 23.371 19.5048 23.4214 19.3833C23.4718 19.2618 23.4978 19.1315 23.4978 19C23.4978 18.8685 23.4718 18.7382 23.4214 18.6167C23.371 18.4952 23.2971 18.3849 23.204 18.292ZM23.204 11.708C23.297 11.6152 23.3708 11.5049 23.4211 11.3835C23.4715 11.2622 23.4975 11.1321 23.4976 11.0007C23.4977 10.8693 23.4719 10.7392 23.4217 10.6178C23.3715 10.4963 23.2978 10.386 23.205 10.293C23.1122 10.2 23.0019 10.1262 22.8806 10.0759C22.7592 10.0255 22.6291 9.99954 22.4977 9.99944C22.3663 9.99935 22.2362 10.0251 22.1148 10.0753C21.9933 10.1255 21.883 10.1992 21.79 10.292L19.496 12.586L18.708 11.796C18.615 11.703 18.5046 11.6293 18.3832 11.579C18.2617 11.5286 18.1315 11.5027 18 11.5027C17.8685 11.5027 17.7383 11.5286 17.6168 11.579C17.4954 11.6293 17.385 11.703 17.292 11.796C17.199 11.889 17.1253 11.9994 17.075 12.1208C17.0246 12.2423 16.9987 12.3725 16.9987 12.504C16.9987 12.6355 17.0246 12.7657 17.075 12.8872C17.1253 13.0086 17.199 13.119 17.292 13.212L18.788 14.708C18.8809 14.8011 18.9912 14.875 19.1127 14.9254C19.2342 14.9758 19.3645 15.0018 19.496 15.0018C19.6275 15.0018 19.7578 14.9758 19.8793 14.9254C20.0008 14.875 20.1111 14.8011 20.204 14.708L23.204 11.708Z" fill="#CCCCCC" />
</svg>
