<svg width="24" height="24" viewBox="0 0 24 24" fill="none" xmlns="http://www.w3.org/2000/svg">
<g clip-path="url(#clip0_322_983)">
<path d="M18.4115 18.4112L23.1429 23.1426M11.1429 21.4284C12.4936 21.4284 13.8311 21.1623 15.0791 20.6454C16.327 20.1285 17.4609 19.3709 18.416 18.4157C19.3711 17.4606 20.1287 16.3267 20.6457 15.0788C21.1626 13.8309 21.4286 12.4934 21.4286 11.1426C21.4286 9.79191 21.1626 8.4544 20.6457 7.20648C20.1287 5.95856 19.3711 4.82467 18.416 3.86955C17.4609 2.91443 16.327 2.15679 15.0791 1.63989C13.8311 1.12298 12.4936 0.856934 11.1429 0.856934C8.41495 0.856934 5.79874 1.9406 3.86979 3.86955C1.94085 5.7985 0.857178 8.41471 0.857178 11.1426C0.857178 13.8706 1.94085 16.4868 3.86979 18.4157C5.79874 20.3447 8.41495 21.4284 11.1429 21.4284Z" stroke="#00D9D9" stroke-linecap="round" stroke-linejoin="round"/>
<path d="M5.9143 11.7051C5.28345 11.5954 5.28345 10.6902 5.9143 10.5805C7.03055 10.3856 8.06352 9.86282 8.88169 9.07885C9.69985 8.29487 10.2662 7.28514 10.5086 6.17823L10.5463 6.00509C10.6834 5.38109 11.5697 5.37766 11.712 5.99995L11.7583 6.20223C12.0102 7.30508 12.5825 8.30884 13.4033 9.08727C14.2241 9.8657 15.2568 10.384 16.3714 10.5771C17.0057 10.6885 17.0057 11.5971 16.3714 11.7085C15.2571 11.9019 14.2248 12.4204 13.4043 13.1988C12.5838 13.9772 12.0117 14.9808 11.76 16.0834L11.7137 16.2857C11.5714 16.9079 10.6852 16.9028 10.548 16.2805L10.5103 16.1091C10.2684 15.0013 9.70207 13.9907 8.88352 13.206C8.06498 12.4214 7.03131 11.9 5.9143 11.7051Z" stroke="#00D9D9" stroke-linecap="round" stroke-linejoin="round"/>
</g>
<defs>
<clipPath id="clip0_322_983">
<rect width="24" height="24" fill="white"/>
</clipPath>
</defs>
</svg>
